<svg width="200" height="200" viewBox="0 0 200 200" fill="none" xmlns="http://www.w3.org/2000/svg">
  <rect width="200" height="200" rx="16" fill="#F3F4F6"/>
  <path d="M100 60C88.9543 60 80 68.9543 80 80C80 91.0457 88.9543 100 100 100C111.046 100 120 91.0457 120 80C120 68.9543 111.046 60 100 60ZM100 90C94.4772 90 90 85.5228 90 80C90 74.4772 94.4772 70 100 70C105.523 70 110 74.4772 110 80C110 85.5228 105.523 90 100 90Z" fill="#D1D5DB"/>
  <path d="M40 160C40 142.327 54.3271 128 72 128H128C145.673 128 160 142.327 160 160V168H40V160Z" fill="#D1D5DB"/>
</svg> 